HIERARCHY
ROOT hip
{
  OFFSET 0.00112043 5.09927 -9.65472
  CHANNELS 6 Xposition Yposition Zposition Zrotation Xrotation Yrotation
  JOINT abdomen
  {
    OFFSET 0 -1.186 -1.5018
    CHANNELS 3 Zrotation Xrotation Yrotation
    JOINT abdomen2
    {
      OFFSET 0 9.964 0.2134
      CHANNELS 3 Zrotation Xrotation Yrotation
      JOINT chest
      {
        OFFSET 0 13.134 -3.2573
        CHANNELS 3 Zrotation Xrotation Yrotation
        JOINT neck
        {
          OFFSET 0 20.686 -1.6905
          CHANNELS 3 Zrotation Xrotation Yrotation
          JOINT head
          {
            OFFSET 0 7.238 -0.1237
            CHANNELS 3 Zrotation Xrotation Yrotation
            End Site
            {
              OFFSET 0 0 0
            }
          }
        }
        JOINT lCollar
        {
          OFFSET 1.7069 20.075 5.0056
          CHANNELS 3 Zrotation Xrotation Yrotation
          JOINT lShldr
          {
            OFFSET 13.6458 -0.047 -4.849
            CHANNELS 3 Zrotation Xrotation Yrotation
            JOINT lForeArm
            {
              OFFSET 28.3255 -0.9759 2.2888
              CHANNELS 3 Zrotation Xrotation Yrotation
              JOINT lHand
              {
                OFFSET 22.1583 -0.53 10.8316
                CHANNELS 3 Zrotation Xrotation Yrotation
                JOINT lThumb1
                {
                  OFFSET 0.786 0.112 2.5817
                  CHANNELS 3 Zrotation Xrotation Yrotation
                  JOINT lThumb2
                  {
                    OFFSET 0.3601 -0.878 4.2331
                    CHANNELS 3 Zrotation Xrotation Yrotation
                    JOINT lThumb2_End
                    {
                      OFFSET 1.8127 -1.216 2.2227
                      CHANNELS 3 Zrotation Xrotation Yrotation
                      End Site
                      {
                        OFFSET 0.0181 -0.0122 0.0222
                      }
                    }
                  }
                }
                JOINT lCarpal1
                {
                  OFFSET 0.9571 1.114 1.7695
                  CHANNELS 3 Zrotation Xrotation Yrotation
                  JOINT lIndex1
                  {
                    OFFSET 4.1246 0.487 4.1451
                    CHANNELS 3 Zrotation Xrotation Yrotation
                    JOINT lIndex2
                    {
                      OFFSET 3.4052 -1.454 2.7682
                      CHANNELS 3 Zrotation Xrotation Yrotation
                      JOINT lIndex2_End
                      {
                        OFFSET 1.4531 -1.795 1.2713
                        CHANNELS 3 Zrotation Xrotation Yrotation
                        End Site
                        {
                          OFFSET 0.0145 -0.0179 0.0127
                        }
                      }
                    }
                  }
                  JOINT lMid1
                  {
                    OFFSET 5.6954 0.21 2.1184
                    CHANNELS 3 Zrotation Xrotation Yrotation
                    JOINT lMid2
                    {
                      OFFSET 3.9766 -1.54 2.3863
                      CHANNELS 3 Zrotation Xrotation Yrotation
                      JOINT lMid2_End
                      {
                        OFFSET 1.4042 -1.926 1.125
                        CHANNELS 3 Zrotation Xrotation Yrotation
                        End Site
                        {
                          OFFSET 0.014 -0.0193 0.0113
                        }
                      }
                    }
                  }
                }
                JOINT lCarpal2
                {
                  OFFSET 2.0956 0.66 -0.3894
                  CHANNELS 3 Zrotation Xrotation Yrotation
                  JOINT lRing1
                  {
                    OFFSET 5.0395 -0.09 2.4971
                    CHANNELS 3 Zrotation Xrotation Yrotation
                    JOINT lRing2
                    {
                      OFFSET 3.7921 -1.552 1.4806
                      CHANNELS 3 Zrotation Xrotation Yrotation
                      JOINT lRing2_End
                      {
                        OFFSET 1.4655 -1.808 0.9609
                        CHANNELS 3 Zrotation Xrotation Yrotation
                        End Site
                        {
                          OFFSET 0.0147 -0.0181 0.0096
                        }
                      }
                    }
                  }
                  JOINT lPinky1
                  {
                    OFFSET 4.9141 -1.269 0.3591
                    CHANNELS 3 Zrotation Xrotation Yrotation
                    JOINT lPinky2
                    {
                      OFFSET 3.1477 -1.685 0.8462
                      CHANNELS 3 Zrotation Xrotation Yrotation
                      JOINT lPinky2_End
                      {
                        OFFSET 0.8055 -1.585 0.7955
                        CHANNELS 3 Zrotation Xrotation Yrotation
                        End Site
                        {
                          OFFSET 0.0081 -0.0158 0.008
                        }
                      }
                    }
                  }
                }
              }
            }
          }
        }
        JOINT rCollar
        {
          OFFSET -1.7069 20.075 5.0056
          CHANNELS 3 Zrotation Xrotation Yrotation
          JOINT rShldr
          {
            OFFSET -13.6458 -0.047 -4.849
            CHANNELS 3 Zrotation Xrotation Yrotation
            JOINT rForeArm
            {
              OFFSET -28.3255 -0.9759 2.2888
              CHANNELS 3 Zrotation Xrotation Yrotation
              JOINT rHand
              {
                OFFSET -22.1583 -0.53 10.8316
                CHANNELS 3 Zrotation Xrotation Yrotation
                JOINT rThumb1
                {
                  OFFSET -0.786 0.112 2.5817
                  CHANNELS 3 Zrotation Xrotation Yrotation
                  JOINT rThumb2
                  {
                    OFFSET -0.3601 -0.878 4.2331
                    CHANNELS 3 Zrotation Xrotation Yrotation
                    JOINT rThumb2_End
                    {
                      OFFSET -1.8127 -1.216 2.2227
                      CHANNELS 3 Zrotation Xrotation Yrotation
                      End Site
                      {
                        OFFSET -0.0181 -0.0122 0.0222
                      }
                    }
                  }
                }
                JOINT rCarpal1
                {
                  OFFSET -0.9571 1.114 1.7695
                  CHANNELS 3 Zrotation Xrotation Yrotation
                  JOINT rIndex1
                  {
                    OFFSET -4.1246 0.487 4.1451
                    CHANNELS 3 Zrotation Xrotation Yrotation
                    JOINT rIndex2
                    {
                      OFFSET -3.4052 -1.454 2.7682
                      CHANNELS 3 Zrotation Xrotation Yrotation
                      JOINT rIndex2_End
                      {
                        OFFSET -1.4531 -1.795 1.2713
                        CHANNELS 3 Zrotation Xrotation Yrotation
                        End Site
                        {
                          OFFSET -0.0145 -0.018 0.0127
                        }
                      }
                    }
                  }
                  JOINT rMid1
                  {
                    OFFSET -5.6954 0.21 2.1184
                    CHANNELS 3 Zrotation Xrotation Yrotation
                    JOINT rMid2
                    {
                      OFFSET -3.9766 -1.54 2.3863
                      CHANNELS 3 Zrotation Xrotation Yrotation
                      JOINT rMid2_End
                      {
                        OFFSET -1.4042 -1.926 1.125
                        CHANNELS 3 Zrotation Xrotation Yrotation
                        End Site
                        {
                          OFFSET -0.014 -0.0193 0.0113
                        }
                      }
                    }
                  }
                }
                JOINT rCarpal2
                {
                  OFFSET -2.0956 0.66 -0.3894
                  CHANNELS 3 Zrotation Xrotation Yrotation
                  JOINT rRing1
                  {
                    OFFSET -5.0395 -0.09 2.4971
                    CHANNELS 3 Zrotation Xrotation Yrotation
                    JOINT rRing2
                    {
                      OFFSET -3.7921 -1.552 1.4806
                      CHANNELS 3 Zrotation Xrotation Yrotation
                      JOINT rRing2_End
                      {
                        OFFSET -1.4655 -1.808 0.9609
                        CHANNELS 3 Zrotation Xrotation Yrotation
                        End Site
                        {
                          OFFSET -0.0147 -0.0181 0.0096
                        }
                      }
                    }
                  }
                  JOINT rPinky1
                  {
                    OFFSET -4.9141 -1.269 0.3592
                    CHANNELS 3 Zrotation Xrotation Yrotation
                    JOINT rPinky2
                    {
                      OFFSET -3.1477 -1.685 0.8462
                      CHANNELS 3 Zrotation Xrotation Yrotation
                      JOINT rPinky2_End
                      {
                        OFFSET -0.8055 -1.585 0.7955
                        CHANNELS 3 Zrotation Xrotation Yrotation
                        End Site
                        {
                          OFFSET -0.0081 -0.0158 0.008
                        }
                      }
                    }
                  }
                }
              }
            }
          }
        }
      }
    }
  }
  JOINT lThigh
  {
    OFFSET 8.367 -8.2066 0.5982
    CHANNELS 3 Zrotation Xrotation Yrotation
    JOINT lShin
    {
      OFFSET 2.1923 -43.463 -0.4932
      CHANNELS 3 Zrotation Xrotation Yrotation
      JOINT lFoot
      {
        OFFSET 0.7333 -45.8593 -2.6451
        CHANNELS 3 Zrotation Xrotation Yrotation
        End Site
        {
          OFFSET 2.6618 -4.2699 12.3931
        }
      }
    }
  }
  JOINT rThigh
  {
    OFFSET -8.367 -8.2066 0.5982
    CHANNELS 3 Zrotation Xrotation Yrotation
    JOINT rShin
    {
      OFFSET -2.1923 -43.463 -0.4931
      CHANNELS 3 Zrotation Xrotation Yrotation
      JOINT rFoot
      {
        OFFSET -0.7333 -45.8593 -2.6451
        CHANNELS 3 Zrotation Xrotation Yrotation
        End Site
        {
          OFFSET -2.6618 -4.2699 12.3931
        }
      }
    }
  }
}
MOTION
Frames:	4
Frame Time:	0.0333333
1.90861 40.1829 20.87 -0.000227106 -13.4989 179.999 0.00808239 3.34494 -0.0491542 0.019094 6.68986 -0.0990362 0.0190941 6.68987 -0.0990363 1.20007e-006 33.1804 -1.00341e-006 -5.08677 -10.4314 -0.926307 -26.8642 4.21389 -8.36404 -22.5437 -4.17297 -32.3261 -31.9777 44.9835 -12.3167 55.5918 -37.5889 -12.1347 1.77576e-006 -5.0413e-008 2.31083e-006 -2.35204e-006 -4.10744e-006 -3.13674e-006 -0 -6.36111e-015 -0 -4.8553e-031 -8.74653e-015 -3.18055e-015 1.77576e-006 -5.0413e-008 2.31083e-006 -2.35204e-006 -4.10744e-006 -3.13674e-006 -1.59028e-015 -3.97569e-015 6.36111e-015 1.77576e-006 -5.0413e-008 2.31083e-006 -2.35204e-006 -4.10744e-006 -3.13674e-006 -1.59028e-015 -3.97569e-015 6.36111e-015 -4.8553e-031 -8.74653e-015 -3.18055e-015 1.77576e-006 -5.0413e-008 2.31083e-006 -2.35204e-006 -4.10744e-006 -3.13674e-006 -1.59028e-015 -3.97569e-015 6.36111e-015 1.77576e-006 -5.0413e-008 2.31083e-006 -2.35204e-006 -4.10744e-006 -3.13674e-006 -1.59028e-015 -3.97569e-015 6.36111e-015 25.4722 -0.140667 4.48561 23.1147 -4.57678 35.3306 32.3156 43.8514 17.9926 -19.6525 -67.9479 -5.10101 -9.93923e-017 -3.97569e-016 -0 -8.94531e-016 -1.98785e-016 -0 -6.95746e-016 -5.96354e-016 -0 -9.93923e-017 3.97569e-016 -0 4.96962e-016 3.97569e-016 3.18055e-015 -8.82781e-032 -1.59028e-015 -3.18055e-015 -3.97569e-016 -1.19271e-015 -3.18055e-015 4.96962e-016 3.97569e-016 3.18055e-015 -8.82781e-032 -1.59028e-015 -3.18055e-015 -3.97569e-016 -1.19271e-015 -3.18055e-015 -9.93923e-017 3.97569e-016 -0 4.96962e-016 3.97569e-016 3.18055e-015 -8.82781e-032 -1.59028e-015 -3.18055e-015 -3.97569e-016 -1.19271e-015 -3.18055e-015 4.96962e-016 3.97569e-016 3.18055e-015 -8.82781e-032 -1.59028e-015 -3.18055e-015 -3.97569e-016 -1.19271e-015 -3.18055e-015 12.1537 -39.0418 22.451 169.558 67.2785 -164.12 -21.4192 52.037 29.8143 -10.3539 -38.1697 -25.3721 -169.98 68.2019 164.743 19.433 49.973 -32.5167 
1.90886 40.1543 20.9232 -0.000235877 -14.0001 179.999 0.00846775 3.40023 -0.0491418 0.0199157 6.80044 -0.0990505 0.0199157 6.80046 -0.0990505 9.26158e-007 33.5891 -3.7577e-007 -5.083 -10.1969 -0.905123 -27.2479 3.2545 -7.95732 -22.5437 -4.17296 -32.3261 -32.2694 45.1181 -12.5539 55.4289 -36.8548 -12.6508 1.59028e-015 -4.77083e-015 -3.18055e-015 -2.20695e-031 3.97569e-015 3.18055e-015 1.59028e-015 7.15625e-015 6.36111e-015 1.59028e-015 -4.77083e-015 -3.18055e-015 6.36111e-015 1.35174e-014 3.18055e-015 1.59028e-015 0 -0 1.59028e-015 -2.38542e-015 -9.54166e-015 6.36111e-015 1.35174e-014 3.18055e-015 1.59028e-015 0 -0 1.59028e-015 -2.38542e-015 -9.54166e-015 1.59028e-015 -4.77083e-015 -3.18055e-015 6.36111e-015 1.35174e-014 3.18055e-015 1.59028e-015 0 -0 1.59028e-015 -2.38542e-015 -9.54166e-015 6.36111e-015 1.35174e-014 3.18055e-015 1.59028e-015 0 -0 1.59028e-015 -2.38542e-015 -9.54166e-015 25.7448 -1.06152 4.18162 23.1147 -4.57677 35.3307 32.6645 44.0287 18.3506 -20.4519 -67.2508 -5.82102 3.97569e-016 -3.97569e-016 -0 9.93923e-016 0 -3.18055e-015 -1.98785e-016 -3.97569e-016 -3.18055e-015 1.19271e-015 0 -0 8.94531e-016 0 -3.18055e-015 -3.97569e-016 -3.97569e-016 -3.18055e-015 -2.5842e-015 -7.95139e-016 -0 8.94531e-016 0 -3.18055e-015 -3.97569e-016 -3.97569e-016 -3.18055e-015 -2.5842e-015 -7.95139e-016 -0 1.19271e-015 0 -0 8.94531e-016 0 -3.18055e-015 -3.97569e-016 -3.97569e-016 -3.18055e-015 -2.5842e-015 -7.95139e-016 -0 8.94531e-016 0 -3.18055e-015 -3.97569e-016 -3.97569e-016 -3.18055e-015 -2.5842e-015 -7.95139e-016 -0 12.3121 -39.6914 22.6652 169.558 67.2782 -164.119 -21.4207 52.0416 29.8171 -10.5234 -38.8167 -25.6 -169.988 68.1743 164.747 19.4375 49.9824 -32.5237 
1.9091 40.1254 20.9767 -0.000244685 -14.5012 179.999 0.00885303 3.4555 -0.0491281 0.0207374 6.911 -0.0990634 0.0207374 6.91101 -0.0990635 8.80632e-007 33.9972 -4.57507e-007 -5.07931 -9.96259 -0.883981 -27.6242 2.29284 -7.55749 -22.5437 -4.17297 -32.3261 -32.561 45.2536 -12.7906 55.2757 -36.1199 -13.1592 -1.59028e-015 -4.77083e-015 6.36111e-015 -1.59028e-015 -7.95139e-016 3.18055e-015 -1.59028e-015 -1.59028e-015 -0 -1.59028e-015 2.38542e-015 9.54166e-015 -1.59028e-015 1.66979e-014 1.59028e-014 -1.59028e-015 3.18055e-015 -6.36111e-015 -1.59028e-015 -5.56597e-015 -6.36111e-015 -1.59028e-015 1.66979e-014 1.59028e-014 -1.59028e-015 3.18055e-015 -6.36111e-015 -1.59028e-015 -5.56597e-015 -6.36111e-015 -1.59028e-015 2.38542e-015 9.54166e-015 -1.59028e-015 1.66979e-014 1.59028e-014 -1.59028e-015 3.18055e-015 -6.36111e-015 -1.59028e-015 -5.56597e-015 -6.36111e-015 -1.59028e-015 1.66979e-014 1.59028e-014 -1.59028e-015 3.18055e-015 -6.36111e-015 -1.59028e-015 -5.56597e-015 -6.36111e-015 26.0125 -1.98348 3.88195 23.1147 -4.57678 35.3306 33.0128 44.2075 18.7081 -21.2065 -66.5501 -6.49605 1.39149e-015 7.95139e-016 -6.36111e-015 9.93923e-017 0 -3.18055e-015 6.95746e-016 -3.97569e-016 -6.36111e-015 7.95139e-016 1.19271e-015 -0 7.95139e-016 -7.95139e-016 -0 2.98177e-016 -7.95139e-016 -0 -3.97569e-016 -3.97569e-016 -6.36111e-015 7.95139e-016 -7.95139e-016 -0 2.98177e-016 -7.95139e-016 -0 -3.97569e-016 -3.97569e-016 -6.36111e-015 7.95139e-016 1.19271e-015 -0 7.95139e-016 -7.95139e-016 -0 2.98177e-016 -7.95139e-016 -0 -3.97569e-016 -3.97569e-016 -6.36111e-015 7.95139e-016 -7.95139e-016 -0 2.98177e-016 -7.95139e-016 -0 -3.97569e-016 -3.97569e-016 -6.36111e-015 12.4748 -40.3411 22.8835 169.559 67.2775 -164.117 -21.4222 52.046 29.8199 -10.6976 -39.4631 -25.8325 -169.996 68.1467 164.751 19.4419 49.9919 -32.5306 
1.90933 40.0961 21.0305 -0.000253532 -15.0023 179.999 0.00923828 3.51078 -0.0491134 0.0215591 7.02151 -0.099075 0.0215591 7.02151 -0.099075 0.221019 32.3613 0.513821 -4.81167 -11.0138 -1.31317 -27.9934 1.32917 -7.1644 -22.5437 -4.17296 -32.3261 -32.8524 45.3899 -13.0269 55.1321 -35.3841 -13.6605 1.32417e-031 -2.38542e-015 3.18055e-015 1.59028e-015 -5.56597e-015 -0 -0 -3.18055e-015 -0 8.82781e-032 -1.59028e-015 3.18055e-015 1.59028e-015 3.18055e-015 6.36111e-015 1.59028e-015 -4.77083e-015 -3.18055e-015 1.59028e-015 5.56597e-015 -3.18055e-015 1.59028e-015 3.18055e-015 6.36111e-015 1.59028e-015 -4.77083e-015 -3.18055e-015 1.59028e-015 5.56597e-015 -3.18055e-015 8.82781e-032 -1.59028e-015 3.18055e-015 1.59028e-015 3.18055e-015 6.36111e-015 1.59028e-015 -4.77083e-015 -3.18055e-015 1.59028e-015 5.56597e-015 -3.18055e-015 1.59028e-015 3.18055e-015 6.36111e-015 1.59028e-015 -4.77083e-015 -3.18055e-015 1.59028e-015 5.56597e-015 -3.18055e-015 26.2754 -2.90634 3.58651 23.1147 -4.57678 35.3307 33.3606 44.3878 19.065 -21.92 -65.8463 -7.12982 2.86638e-007 1.24283e-006 1.11477e-006 -3.96803e-006 5.86175e-006 -1.11612e-006 2.86638e-007 1.24283e-006 1.11477e-006 -1.09332e-015 0 -0 2.86638e-007 1.24283e-006 1.11477e-006 -3.96803e-006 5.86175e-006 -1.11612e-006 2.86638e-007 1.24283e-006 1.11477e-006 2.86638e-007 1.24283e-006 1.11477e-006 -3.96803e-006 5.86175e-006 -1.11612e-006 2.86638e-007 1.24283e-006 1.11477e-006 -1.09332e-015 0 -0 2.86638e-007 1.24283e-006 1.11477e-006 -3.96803e-006 5.86175e-006 -1.11612e-006 2.86638e-007 1.24283e-006 1.11477e-006 2.86638e-007 1.24283e-006 1.11477e-006 -3.96803e-006 5.86175e-006 -1.11612e-006 2.86638e-007 1.24283e-006 1.11477e-006 12.643 -40.9891 23.1068 169.558 67.2776 -164.116 -21.4237 52.0505 29.8226 -10.8765 -40.1095 -26.0696 -170.005 68.1187 164.756 19.4463 50.0014 -32.5376 
